<svg fill="none" height="470" width="393" xmlns="http://www.w3.org/2000/svg"><linearGradient id="a" gradientUnits="userSpaceOnUse" x1="453.095" x2="-145.501" y1="260.678" y2="552.633"><stop offset="0" stop-color="#f38936"/><stop offset="1" stop-color="#ee4d76"/></linearGradient><path clip-rule="evenodd" d="M-50.06 422.982c25.97 17.603 38.956 26.405 53.14 30.496a93 93 0 0 0 38.656 2.747c14.62-2.045 28.72-8.921 56.919-22.675l123.396-60.185c75.847-36.992 113.77-55.489 127.958-82.129a93.001 93.001 0 0 0 5.357-75.386c-10.279-28.379-45.205-52.052-115.059-99.398l-24.246-16.434c-25.972-17.603-38.957-26.405-53.141-30.496a93 93 0 0 0-38.656-2.747c-14.62 2.044-28.72 8.921-56.919 22.675L-56.05 149.635c-75.847 36.992-113.77 55.489-127.958 82.129a93.001 93.001 0 0 0-5.357 75.386c10.279 28.379 45.205 52.052 115.059 99.398z" fill="url(#a)" fill-rule="evenodd"/></svg>