<svg width="460" height="200" viewBox="0 0 460 200" fill="none" xmlns="http://www.w3.org/2000/svg">
<rect x="104.5" y="4.5" width="244" height="140" rx="4.5" fill="#011650" stroke="#011650" stroke-width="3"/>
<circle cx="226.5" cy="129.5" r="5" stroke="#FF3175"/>
<path d="M104.5 9C104.5 6.51472 106.515 4.5 109 4.5H344C346.486 4.5 348.5 6.51472 348.5 9V114.5H104.5V9Z" fill="#DFE8FE" stroke="#011650" stroke-width="3"/>
<path d="M183 40H347V113H183V40Z" fill="#5783FC"/>
<path d="M197.258 54.5C197.258 54.0998 197.582 53.7754 197.982 53.7754H203.779C204.179 53.7754 204.504 54.0998 204.504 54.5C204.504 54.9002 204.179 55.2246 203.779 55.2246H197.982C197.582 55.2246 197.258 54.9002 197.258 54.5Z" fill="#011650"/>
<path fill-rule="evenodd" clip-rule="evenodd" d="M232.763 51.6783C233.046 51.3953 233.505 51.3953 233.788 51.6783C234.071 51.9613 234.071 52.4201 233.788 52.703L231.991 54.4999L233.788 56.297C234.071 56.5799 234.071 57.0387 233.788 57.3217C233.505 57.6047 233.046 57.6047 232.763 57.3217L230.966 55.5247L229.169 57.3217C228.886 57.6047 228.427 57.6047 228.144 57.3217C227.861 57.0387 227.861 56.5799 228.144 56.297L229.941 54.4999L228.144 52.703C227.862 52.4201 227.862 51.9613 228.144 51.6783C228.427 51.3953 228.886 51.3953 229.169 51.6783L230.966 53.4752L232.763 51.6783Z" fill="#FC466F"/>
<rect x="194" y="85" width="144" height="28" fill="#CFEDFC"/>
<circle cx="207.5" cy="97.5" r="5.5" fill="white"/>
<line x1="219" y1="95.5" x2="306" y2="95.5" stroke="#011650"/>
<line x1="219" y1="110.5" x2="306" y2="110.5" stroke="#011650"/>
<line x1="219" y1="99.5" x2="263" y2="99.5" stroke="#011650"/>
<path d="M207.5 107.5C204.462 107.5 202 109.962 202 113H213C213 109.962 210.538 107.5 207.5 107.5Z" fill="white"/>
<rect x="194" y="48" width="102" height="12" rx="6" fill="white"/>
<rect x="306" y="48" width="12" height="12" rx="6" fill="white"/>
<rect x="326" y="48" width="12" height="12" rx="6" fill="#011650"/>
<line x1="194" y1="68.5" x2="338" y2="68.5" stroke="#011650"/>
<rect x="199.5" y="146" width="54" height="54" fill="#DFE8FE"/>
<path d="M254 146H200L254 169V146Z" fill="#9EB7F3"/>
<path d="M104 19H29V47" stroke="#011650" stroke-width="2"/>
<circle cx="29" cy="74" r="29" fill="#5783FC"/>
<path fill-rule="evenodd" clip-rule="evenodd" d="M29.3868 74.3871C32.8074 74.3871 35.5804 71.6142 35.5804 68.1935C35.5804 64.7729 32.8074 62 29.3868 62C25.9662 62 23.1933 64.7729 23.1933 68.1935C23.1933 71.6142 25.9662 74.3871 29.3868 74.3871ZM17.6999 82.0824C19.3607 77.5964 23.7931 74.3871 28.9999 74.3871C34.2068 74.3871 38.6391 77.5964 40.3 82.0824C41.067 84.1542 39.2091 86 36.9999 86H20.9999C18.7908 86 16.9329 84.1542 17.6999 82.0824Z" fill="white"/>
<path d="M120.763 127.017L83.7253 165.614L67.7262 151.433L103.583 110.509L104.441 109.53L103.274 108.953L72.1868 93.597L181.222 41.9489L139.895 154.831L122.329 127.173L121.645 126.097L120.763 127.017Z" fill="white" stroke="#5783FC" stroke-width="2"/>
<line x1="182.419" y1="29.041" x2="182.419" y2="18.5811" stroke="black" stroke-width="1.1622" stroke-linecap="round"/>
<line x1="194.99" y1="31.5363" x2="200.22" y2="22.4778" stroke="black" stroke-width="1.1622" stroke-linecap="round"/>
<line x1="0.581102" y1="-0.581102" x2="11.0409" y2="-0.581102" transform="matrix(-0.5 -0.866025 -0.866025 0.5 170.797 32.3301)" stroke="black" stroke-width="1.1622" stroke-linecap="round"/>
<path d="M364.019 149.549L350.009 125.284C342.272 111.882 346.864 94.7464 360.265 87.0093V87.0093C373.666 79.2721 390.802 83.8637 398.539 97.2649V97.2649" stroke="#FFDD66" stroke-width="10"/>
<path opacity="0.5" d="M354.5 123L368.509 147.265L359.849 152.265L345.84 128C344.219 125.192 342.5 122 342 118.5L354.5 123Z" fill="#011650"/>
<path d="M337 130.835C337 128.474 338.914 126.56 341.275 126.56H405.725C408.086 126.56 410 128.474 410 130.835V163.06C410 183.218 393.658 199.56 373.5 199.56C353.341 199.56 337 183.218 337 163.06V130.835Z" fill="#FF3175"/>
<path fill-rule="evenodd" clip-rule="evenodd" d="M379 159.045C381.412 157.43 383 154.68 383 151.56C383 146.589 378.97 142.56 374 142.56C369.029 142.56 365 146.589 365 151.56C365 154.68 366.588 157.43 369 159.045V170.56C369 173.321 371.238 175.56 374 175.56C376.761 175.56 379 173.321 379 170.56V159.045Z" fill="#011650"/>
<path fill-rule="evenodd" clip-rule="evenodd" d="M455.606 4.78478C453.249 1.8616 449.648 0.0759277 445.608 0.0759277H412.064C412.043 0.0506784 412.021 0.0253687 412 0H391.19C384.278 0 379 5.62023 379 12.5316C379 19.443 384.62 25.0633 391.532 25.0633H395.785V35.5443L406.797 25.0633H445.76C452.671 25.0633 458.291 19.443 458.291 12.5316C458.291 10.0107 457.538 7.60568 456.234 5.62023H456.252L456.109 5.4339C455.957 5.21186 455.799 4.99534 455.633 4.78478H455.606ZM413.707 1.57061C413.385 1.28291 413.072 1.00559 412.759 0.749584L412.504 0.540418C412.873 0.900966 413.29 1.24612 413.707 1.57061Z" fill="#5CE0D2"/>
<path d="M391 15.0381C391 15.0381 403.835 11.9242 398.899 8.8103C393.962 5.69637 392.519 15.0381 407.329 15.0381C411.734 15.0381 410.671 12.228 418.494 13.5951C430.722 15.7217 430.19 10.5571 435.886 12.6837C441.582 14.8103 446.671 15.4938 446.671 15.4938" stroke="#011650" stroke-miterlimit="10" stroke-linecap="round"/>
<path d="M434.05 56.7293C434.798 56.5315 435.484 57.2071 435.283 57.9454L432.391 68.5875C432.19 69.3258 431.254 69.5731 430.706 69.0326L422.805 61.2421C422.257 60.7016 422.508 59.7787 423.257 59.5808L434.05 56.7293Z" fill="#FF3175"/>
<path d="M104 199L414 199" stroke="#011650" stroke-width="2" stroke-linecap="round"/>
<path d="M70 199L93 199" stroke="#011650" stroke-width="2" stroke-linecap="round"/>
<circle cx="29" cy="19" r="5" fill="#011650"/>
<path d="M18 159.5C23 155.833 33.3 146.5 34.5 138.5C36 128.5 28.5 129.5 27.5 131C26.5 132.5 26 140 39 140C49.4 140 57.3333 132 60 128" stroke="#011650" stroke-width="1.64384" stroke-linecap="round"/>
</svg>
